<?xml version="1.0" standalone="no"?>
<!DOCTYPE svg PUBLIC "-//W3C//DTD SVG 20010904//EN"
 "http://www.w3.org/TR/2001/REC-SVG-20010904/DTD/svg10.dtd">
<svg version="1.0" xmlns="http://www.w3.org/2000/svg"
 width="96.000000pt" height="96.000000pt" viewBox="0 0 96.000000 96.000000"
 preserveAspectRatio="xMidYMid meet">
<metadata>
Created by potrace 1.14, written by Peter Selinger 2001-2017
</metadata>
<g transform="translate(0.000000,96.000000) scale(0.100000,-0.100000)"
fill="#000000" stroke="none">
<path d="M168 898 c-16 -5 -28 -14 -28 -19 0 -6 -4 -7 -10 -4 -5 3 -10 -1 -10
-9 0 -9 -4 -16 -9 -16 -12 0 -22 -27 -27 -77 -5 -42 17 -113 34 -113 18 0 19
-38 2 -76 -10 -21 -17 -57 -16 -80 0 -23 -2 -40 -6 -37 -5 2 -8 0 -8 -6 0 -5
4 -12 8 -15 5 -3 7 -19 6 -35 -1 -18 3 -31 9 -31 7 0 5 -5 -3 -10 -12 -8 -12
-10 -1 -10 8 0 12 -3 9 -6 -4 -3 0 -17 7 -31 12 -22 11 -28 -1 -40 -8 -8 -12
-19 -9 -24 4 -5 2 -9 -3 -9 -13 0 -7 -102 7 -128 6 -11 20 -24 31 -27 11 -3
20 -11 20 -17 0 -6 6 -6 15 2 9 7 15 8 15 2 0 -5 20 -9 45 -8 25 1 45 -2 45
-6 0 -4 5 -8 11 -8 5 0 7 6 3 13 -6 9 -5 9 7 0 12 -10 18 -10 27 -1 9 9 12 9
12 -1 0 -11 3 -11 17 0 9 8 14 10 11 4 -4 -6 16 -10 53 -10 32 0 59 2 59 5 0
8 55 4 68 -4 7 -4 12 -2 12 5 0 10 3 10 12 1 15 -15 31 -16 22 0 -5 7 -3 8 7
3 21 -13 55 -11 75 5 16 13 17 13 11 -2 -5 -14 -2 -16 16 -9 12 4 29 7 37 6 8
-1 27 7 43 18 15 10 27 15 27 10 0 -17 32 39 34 60 1 13 6 28 10 35 4 7 3 12
-1 12 -5 0 -10 10 -10 22 -1 13 -10 28 -19 35 -12 9 -15 20 -10 45 4 18 8 41
9 51 1 9 4 17 8 17 9 0 4 155 -6 198 -4 17 -11 32 -16 32 -12 0 -7 21 9 39 47
50 57 101 34 169 -18 55 -77 92 -145 92 -26 0 -47 -3 -47 -8 0 -4 -13 -13 -28
-20 -16 -7 -35 -23 -42 -37 -7 -13 -17 -22 -22 -19 -15 9 -168 12 -173 3 -8
-12 -38 2 -59 29 -36 46 -115 64 -178 40z"/>
</g>
</svg>
